<svg xmlns="http://www.w3.org/2000/svg" width="200" height="200" viewBox="0 0 200 200" fill="none">
  <path d="M100 184C146.392 184 184 146.392 184 100C184 53.6081 146.392 16 100 16C53.6081 16 16 53.6081 16 100C16 146.392 53.6081 184 100 184Z" fill="#F5F5F5" stroke="#E0E0E0" stroke-width="2"/>
  <path d="M140 62C126.193 48.193 103.807 48.193 90 62L100 72L110 62C123.807 48.193 146.193 48.193 160 62C173.807 75.807 173.807 98.193 160 112L100 172L40 112C26.193 98.193 26.193 75.807 40 62C53.807 48.193 76.193 48.193 90 62" stroke="#BDBDBD" stroke-width="5" stroke-linecap="round" stroke-linejoin="round"/>
  <path d="M100 122C111.046 122 120 113.046 120 102C120 90.9543 111.046 82 100 82C88.9543 82 80 90.9543 80 102C80 113.046 88.9543 122 100 122Z" fill="white" stroke="#BDBDBD" stroke-width="2"/>
  <path d="M80 102H120" stroke="#BDBDBD" stroke-width="2"/>
  <path d="M100 82V122" stroke="#BDBDBD" stroke-width="2"/>
</svg>
